<svg xmlns="http://www.w3.org/2000/svg" width="22" height="18" viewBox="0 0 22 18"><g><g><g/><g><g/><g><g><g><g><path fill="#fff" d="M.462 2.089c3.02 2.557 8.318 7.056 9.875 8.458.209.19.433.286.666.286.232 0 .456-.096.665-.284 1.558-1.404 6.856-5.903 9.876-8.46a.458.458 0 0 0 .064-.633A1.82 1.82 0 0 0 20.17.75H1.836a1.82 1.82 0 0 0-1.438.706.458.458 0 0 0 .064.633z"/></g><g><path fill="#fff" d="M21.736 3.473a.456.456 0 0 0-.489.066C19.27 5.215 16.664 7.429 14.7 9.12a.458.458 0 0 0 .013.705c1.826 1.462 4.577 3.474 6.564 4.903a.457.457 0 0 0 .726-.372V3.89a.458.458 0 0 0-.266-.416z"/></g><g><path fill="#fff" d="M.726 14.728c1.987-1.43 4.74-3.441 6.564-4.903a.457.457 0 0 0 .013-.705C5.338 7.43 2.733 5.215.755 3.539a.459.459 0 0 0-.755.35v10.467a.458.458 0 0 0 .726.372z"/></g><g><path fill="#fff" d="M21.438 15.977c-1.92-1.372-5.454-3.932-7.564-5.644a.46.46 0 0 0-.59.01c-.414.361-.76.666-1.006.887-.755.681-1.802.681-2.558-.001-.245-.22-.592-.526-1.006-.886a.457.457 0 0 0-.59-.01c-2.102 1.707-5.64 4.269-7.562 5.644a.46.46 0 0 0-.07.685c.348.374.836.588 1.34.588h18.334c.504 0 .993-.214 1.34-.588a.459.459 0 0 0-.068-.685z"/></g></g></g></g></g></g></g></svg>